<?xml version="1.0" encoding="utf-8"?>
<!-- Generator: Adobe Illustrator 16.0.3, SVG Export Plug-In . SVG Version: 6.00 Build 0)  -->
<!DOCTYPE svg PUBLIC "-//W3C//DTD SVG 1.1//EN" "http://www.w3.org/Graphics/SVG/1.1/DTD/svg11.dtd">
<svg version="1.1" id="Capa_1" xmlns="http://www.w3.org/2000/svg" xmlns:xlink="http://www.w3.org/1999/xlink" x="0px" y="0px"
	 width="399.998px" height="140px" viewBox="0 129.999 399.998 140" enable-background="new 0 129.999 399.998 140"
	 xml:space="preserve">
<g>
	<g>
		<path fill="#4F4F4F" d="M84.646,210.331l-12.08-7.835c1.55-4.421,1.2-9.358-1.046-13.548l9.908-8.853
			c5.443,3.396,12.698,2.733,17.43-1.999c5.509-5.508,5.509-14.439,0-19.947c-5.508-5.508-14.439-5.508-19.947,0
			c-4.339,4.339-5.258,10.799-2.762,16.041l-9.91,8.854c-4.744-3.283-10.795-3.857-15.996-1.715l-11.428-15.726
			c4.1-5.382,3.695-13.098-1.222-18.016c-5.362-5.362-14.057-5.362-19.419,0c-5.362,5.363-5.362,14.057,0,19.419
			c3.851,3.851,9.417,4.936,14.236,3.258l11.429,15.728c-5.644,6.62-5.343,16.571,0.915,22.829c0.12,0.12,0.244,0.233,0.368,0.35
			l-11.073,19.434c-4.602-1.088-9.644,0.16-13.233,3.749c-5.508,5.509-5.508,14.44,0,19.948c5.508,5.508,14.439,5.508,19.948,0
			c5.451-5.45,5.504-14.251,0.167-19.771l11.072-19.433c5.56,1.597,11.777,0.276,16.246-3.96l12.092,7.842
			c-0.771,3.585,0.231,7.478,3.019,10.263c4.364,4.365,11.44,4.365,15.805,0c4.364-4.363,4.364-11.439,0-15.804
			C95.206,207.481,89.019,207.112,84.646,210.331z M25.594,239.194c-0.269,0.304-0.521,0.591-0.769,0.839
			c-0.309,0.308-0.731,0.684-1.254,0.846c-0.657,0.203-1.329,0.024-1.844-0.491c-1.346-1.346-0.831-3.894,1.198-5.922
			c2.03-2.03,4.577-2.546,5.924-1.198c0.515,0.514,0.693,1.187,0.49,1.844c-0.161,0.523-0.537,0.946-0.846,1.254
			c-0.248,0.247-0.535,0.5-0.839,0.769c-0.352,0.309-0.716,0.629-1.074,0.986C26.222,238.478,25.903,238.842,25.594,239.194z
			 M81.02,160.261c2.03-2.03,4.576-2.545,5.923-1.199c0.515,0.515,0.694,1.187,0.49,1.845c-0.161,0.524-0.537,0.946-0.846,1.255
			c-0.247,0.247-0.534,0.499-0.839,0.767c-0.352,0.31-0.715,0.629-1.073,0.987s-0.679,0.723-0.987,1.074
			c-0.269,0.304-0.521,0.592-0.769,0.839c-0.308,0.309-0.73,0.685-1.254,0.846c-0.658,0.203-1.33,0.024-1.845-0.491
			C78.475,164.838,78.991,162.29,81.02,160.261z M22.826,154.246c-0.262,0.296-0.507,0.576-0.747,0.817
			c-0.3,0.3-0.711,0.665-1.221,0.823c-0.64,0.197-1.294,0.023-1.796-0.477c-1.311-1.311-0.809-3.791,1.167-5.767
			c1.976-1.977,4.455-2.478,5.767-1.167c0.501,0.501,0.676,1.156,0.478,1.795c-0.159,0.51-0.523,0.921-0.824,1.221
			c-0.241,0.241-0.521,0.487-0.817,0.747c-0.342,0.301-0.697,0.612-1.045,0.961C23.439,153.549,23.127,153.904,22.826,154.246z
			 M47.275,187.515c2.425-2.425,5.466-3.04,7.075-1.431c0.615,0.615,0.829,1.417,0.586,2.204c-0.194,0.626-0.643,1.13-1.011,1.499
			c-0.296,0.295-0.639,0.596-1.003,0.917c-0.419,0.37-0.854,0.751-1.282,1.179c-0.428,0.428-0.81,0.863-1.179,1.283
			c-0.32,0.363-0.622,0.707-0.917,1.002c-0.368,0.37-0.873,0.817-1.499,1.011c-0.785,0.242-1.588,0.029-2.204-0.586
			C44.234,192.981,44.85,189.94,47.275,187.515z M86.537,217.522c-0.245,0.244-0.58,0.543-0.994,0.671
			c-0.521,0.16-1.053,0.019-1.461-0.389c-1.067-1.067-0.66-3.085,0.949-4.693c1.607-1.608,3.626-2.017,4.693-0.949
			c0.407,0.407,0.549,0.939,0.388,1.462c-0.128,0.415-0.426,0.749-0.67,0.993c-0.195,0.195-0.424,0.396-0.664,0.608
			c-0.278,0.244-0.567,0.498-0.851,0.781c-0.284,0.284-0.538,0.572-0.782,0.852C86.932,217.099,86.732,217.326,86.537,217.522z"/>
	</g>
</g>
<g>
	<path fill="#4F4F4F" d="M145.647,143.084h9.02v71.391c0,1.174,0.421,2.183,1.265,3.024c0.842,0.845,1.851,1.265,3.025,1.265h10.78
		v9.021h-10.78c-3.667,0-6.803-1.301-9.405-3.905c-2.604-2.602-3.905-5.736-3.905-9.404V143.084z"/>
	<path fill="#4F4F4F" d="M190.966,163.985h38.281c3.74,0,6.91,1.303,9.514,3.905c2.604,2.604,3.906,5.739,3.906,9.405v37.181
		c0,3.668-1.303,6.803-3.906,9.404c-2.604,2.604-5.773,3.905-9.514,3.905h-38.281c-3.668,0-6.803-1.301-9.405-3.905
		c-2.604-2.602-3.905-5.736-3.905-9.404v-37.181c0-3.666,1.301-6.801,3.905-9.405C184.164,165.288,187.298,163.985,190.966,163.985z
		 M229.247,173.005h-38.281c-1.174,0-2.183,0.422-3.025,1.265c-0.844,0.844-1.265,1.853-1.265,3.025v37.181
		c0,1.174,0.421,2.183,1.265,3.024c0.842,0.845,1.851,1.265,3.025,1.265h38.281c1.172,0,2.18-0.42,3.023-1.265
		c0.844-0.842,1.266-1.851,1.266-3.024v-37.181c0-1.172-0.422-2.181-1.266-3.025C231.427,173.427,230.419,173.005,229.247,173.005z"
		/>
	<path fill="#4F4F4F" d="M317.575,239.554c0,3.74-1.285,6.911-3.852,9.516c-2.566,2.602-5.719,3.905-9.459,3.905h-39.82v-9.131
		h39.82c1.172,0,2.182-0.423,3.025-1.265c0.842-0.844,1.264-1.853,1.264-3.025v-11.77h-42.568c-3.668,0-6.803-1.301-9.406-3.905
		c-2.604-2.602-3.904-5.736-3.904-9.404v-37.181c0-3.666,1.301-6.801,3.904-9.405c2.604-2.602,5.738-3.905,9.406-3.905h38.279
		c3.74,0,6.893,1.303,9.459,3.905c2.566,2.604,3.852,5.739,3.852,9.405V239.554z M265.985,218.764h38.279
		c1.172,0,2.182-0.42,3.025-1.265c0.842-0.842,1.264-1.851,1.264-3.024v-37.181c0-1.172-0.422-2.181-1.264-3.025
		c-0.844-0.842-1.854-1.265-3.025-1.265h-38.279c-1.174,0-2.184,0.422-3.025,1.265c-0.844,0.844-1.266,1.853-1.266,3.025v37.181
		c0,1.174,0.422,2.183,1.266,3.024C263.802,218.344,264.812,218.764,265.985,218.764z"/>
	<path fill="#4F4F4F" d="M340.017,163.985h38.279c3.74,0,6.912,1.303,9.516,3.905c2.602,2.604,3.904,5.739,3.904,9.405v37.181
		c0,3.668-1.303,6.803-3.904,9.404c-2.604,2.604-5.775,3.905-9.516,3.905h-38.279c-3.668,0-6.803-1.301-9.406-3.905
		c-2.604-2.602-3.904-5.736-3.904-9.404v-37.181c0-3.666,1.301-6.801,3.904-9.405C333.214,165.288,336.349,163.985,340.017,163.985z
		 M378.296,173.005h-38.279c-1.174,0-2.184,0.422-3.025,1.265c-0.844,0.844-1.266,1.853-1.266,3.025v37.181
		c0,1.174,0.422,2.183,1.266,3.024c0.842,0.845,1.852,1.265,3.025,1.265h38.279c1.172,0,2.182-0.42,3.025-1.265
		c0.842-0.842,1.266-1.851,1.266-3.024v-37.181c0-1.172-0.424-2.181-1.266-3.025C380.478,173.427,379.468,173.005,378.296,173.005z"
		/>
</g>
</svg>
